HIERARCHY
ROOT ui
{
	 OFFSET 0 0 0
	 CHANNELS 3 XPosition YPosition Z Position
	 EndSite
	 {
	 OFFSET 0 -1 0
	 }
}
ROOT li
{
	 OFFSET 0 0 0
	 CHANNELS 3 XPosition YPosition Z Position
	 EndSite
	 {
	 OFFSET 0 -1 0
	 }
}
ROOT ul
{
	 OFFSET 0 0 0
	 CHANNELS 3 XPosition YPosition Z Position
	 EndSite
	 {
	 OFFSET 0 -1 0
	 }
}
ROOT ll
{
	 OFFSET 0 0 0
	 CHANNELS 3 XPosition YPosition Z Position
	 EndSite
	 {
	 OFFSET 0 -1 0
	 }
}
ROOT tt
{
	 OFFSET 0 0 0
	 CHANNELS 3 XPosition YPosition Z Position
	 EndSite
	 {
	 OFFSET 0 -1 0
	 }
}
ROOT tb
{
	 OFFSET 0 0 0
	 CHANNELS 3 XPosition YPosition Z Position
	 EndSite
	 {
	 OFFSET 0 -1 0
	 }
}
ROOT td
{
	 OFFSET 0 0 0
	 CHANNELS 3 XPosition YPosition Z Position
	 EndSite
	 {
	 OFFSET 0 -1 0
	 }
}
ROOT v
{
	 OFFSET 0 0 0
	 CHANNELS 3 XPosition YPosition Z Position
	 EndSite
	 {
	 OFFSET 0 -1 0
	 }
}
ROOT bn
{
	 OFFSET 0 0 0
	 CHANNELS 3 XPosition YPosition Z Position
	 EndSite
	 {
	 OFFSET 0 -1 0
	 }
}
MOTION
Frames: 30
Frame Time: 0.002
0.006387153148651123	2.292879968881607E-4	0		0.42093600463867187	-2.3265380859375	0		-1.05467529296875	-0.04984585952758789	0		-0.8165992431640625	-2.289450439453125	0		1.44480615234375	-0.49351541137695315	0		3.07778857421875	0.16345143127441406	0		4.512453125	0.1318472900390625	0		5.578158203125	0.10582747650146485	0		-0.17254214477539062	5.89035986328125	0		
0.004111742973327637	-0.002901128053665161	0		0.4218802185058594	-2.326692626953125	0		-1.100851318359375	-0.04727117538452148	0		-0.890592529296875	-2.285361328125	0		1.445618896484375	-0.49359649658203125	0		3.1136376953125	0.1678645935058594	0		4.504240234375	0.1331458740234375	0		5.58310546875	0.11597000122070313	0		-0.1863624267578125	5.8804130859375	0		
0.008020900726318359	-1.4230300486087799E-4	0		0.4208701171875	-2.328814208984375	0		-1.062997314453125	-0.04819375228881836	0		-0.8187232666015625	-2.294869140625	0		1.466490234375	-0.495033447265625	0		3.070417724609375	0.16468179321289061	0		4.5219423828125	0.12498485565185546	0		5.589775390625	0.1060821990966797	0		-0.18691453552246093	5.88122900390625	0		
0.0018321189880371094	-0.007209304809570312	0		0.42400543212890623	-2.32701171875	0		-1.130120361328125	-0.051262680053710936	0		-0.8884732666015625	-2.28586962890625	0		1.4505499267578126	-0.489821533203125	0		3.07621533203125	0.1576226806640625	0		4.510869140625	0.1253283233642578	0		5.58070263671875	0.1064669189453125	0		-0.3386960754394531	5.8657060546875	0		
0.026906532287597658	-0.0038275959491729738	0		0.4043359985351562	-2.317811279296875	0		-1.084010986328125	-0.04632875442504883	0		-0.8052667846679687	-2.28456787109375	0		1.45771337890625	-0.4830234375	0		3.1004013671875	0.16823477172851561	0		4.50909619140625	0.13849644470214845	0		5.5958408203125	0.1144117660522461	0		-0.1544929656982422	5.89826708984375	0		
0.014089149475097656	0.002218125104904175	0		0.4304924011230469	-2.3224208984375	0		-1.123978759765625	-0.048883655548095706	0		-0.8820093994140625	-2.282457763671875	0		1.4557689208984375	-0.4860731201171875	0		3.0815908203125	0.1755907287597656	0		4.51705615234375	0.13247630310058595	0		5.58691015625	0.11476068878173828	0		-0.16996693420410156	5.889337890625	0		
0.015222305297851563	0.0020167338848114014	0		0.42768710327148435	-2.327525146484375	0		-1.054782958984375	-0.04634320831298828	0		-0.8098634643554687	-2.290952392578125	0		1.450794677734375	-0.4940768737792969	0		3.07862646484375	0.17065519714355468	0		4.52605810546875	0.12542337799072265	0		5.60289453125	0.10665407562255859	0		-0.17017375183105468	5.89114208984375	0		
0.01334779167175293	-0.0011329339742660522	0		0.4290041198730469	-2.32770263671875	0		-1.1316258544921876	-0.047254730224609375	0		-0.8834852294921876	-2.286902099609375	0		1.4520015869140626	-0.4941929016113281	0		3.084671142578125	0.16355116271972656	0		4.510369140625	0.13378607177734375	0		5.585068359375	0.10711737823486328	0		-0.1693502655029297	5.8909287109375	0		
0.014551201820373534	-0.0013349540233612062	0		0.430337158203125	-2.327881591796875	0		-1.0834615478515626	-0.05033389282226562	0		-0.8431776123046875	-2.2888291015625	0		1.45630126953125	-0.4903673095703125	0		3.08176220703125	0.1575904083251953	0		4.52054638671875	0.132678955078125	0		5.586265625	0.10722579193115235	0		-0.16750991821289063	5.88869970703125	0		
-0.05814226531982422	0.004741137981414795	0		0.3818441162109375	-2.317199462890625	0		-1.119244384765625	-0.04995126342773438	0		-0.8747269287109375	-2.28150439453125	0		1.4606038818359375	-0.4865472106933594	0		3.082187744140625	0.17056040954589843	0		4.5217490234375	0.1327064208984375	0		5.59160693359375	0.1152369384765625	0		-0.28675341796875	5.8805625	0		
0.020007190704345704	0.0012145220041275024	0		0.4349979858398437	-2.326275146484375	0		-1.0499879150390625	-0.047371349334716796	0		-0.8045944213867188	-2.2919287109375	0		1.4618211669921874	-0.4866804504394531	0		3.08825439453125	0.16341477966308593	0		4.5180771484375	0.1407952117919922	0		5.59865869140625	0.10718663787841796	0		-0.16663235473632812	5.89030078125	0		
-0.05884891891479492	3.9429900050163267E-4	0		0.43422024536132814	-2.328419189453125	0		-1.12279150390625	-0.045336399078369144	0		-0.8501607055664062	-2.281349365234375	0		1.456869873046875	-0.49471527099609375	0		3.108497802734375	0.1680113983154297	0		4.524099609375	0.132689453125	0		5.589822265625	0.10737908935546875	0		-0.16569329833984375	5.8900986328125	0		
0.016198644638061522	-0.005067875862121582	0		0.43338818359375	-2.330562744140625	0		-1.0517418212890626	-0.05076420974731445	0		-0.8041726684570313	-2.294338623046875	0		1.4580128173828124	-0.4948605041503906	0		3.0856572265625	0.17033047485351563	0		4.5331015625	0.12550672912597657	0		5.60994287109375	0.107041015625	0		-0.1799249725341797	5.88015966796875	0		
0.02033070182800293	-0.002307547092437744	0		0.38265591430664064	-2.3228505859375	0		-1.114667236328125	-0.05088340759277344	0		-0.873903076171875	-2.2863330078125	0		1.4591064453125	-0.49501171875	0		3.050653564453125	0.16583772277832032	0		4.5153017578125	0.13275796508789062	0		5.59202392578125	0.10732066345214844	0		-0.2961988830566406	5.86897216796875	0		
0.02847796630859375	0.004388562202453613	0		0.4437532348632813	-2.322053466796875	0		-1.0996055908203124	-0.04932746124267578	0		-0.8667301025390625	-2.28063623046875	0		1.4693310546875	-0.48432354736328126	0		3.120703125	0.16653082275390624	0		4.53729052734375	0.13029986572265626	0		5.59718701171875	0.11517192077636719	0		-0.280128173828125	5.87752490234375	0		
-0.04852701950073242	0.00654399299621582	0		0.41575314331054686	-2.32172998046875	0		-1.081589599609375	-0.04680990219116211	0		-0.7948649291992187	-2.289037109375	0		1.4672528076171876	-0.48743115234375	0		3.09280859375	0.17488662719726564	0		4.52753076171875	0.14636465454101563	0		5.59815185546875	0.1150643539428711	0		-0.16201309204101563	5.88934228515625	0		
0.023219568252563477	-0.002839344024658203	0		0.4395416259765625	-2.3292900390625	0		-1.0806956787109374	-0.04698953628540039	0		-0.8709254760742188	-2.2868994140625	0		1.462014404296875	-0.49548764038085935	0		3.08551416015625	0.16387716674804687	0		4.53220068359375	0.1331614685058594	0		5.6049072265625	0.10683445739746093	0		-0.16116445922851563	5.889169921875	0		
-0.05294057846069336	-6.896089911460876E-4	0		0.4045559387207031	-2.31784033203125	0		-1.12092919921875	-0.04945858383178711	0		-0.8070623779296875	-2.28514453125	0		1.4628280029296874	-0.4956466979980469	0		3.095306640625	0.1625712890625	0		4.5258759765625	0.12513587188720704	0		5.5957197265625	0.10686338806152344	0		-0.1613601837158203	5.89002099609375	0		
0.024754724502563476	-0.0031635479927062987	0		0.4410908813476562	-2.32961181640625	0		-1.11615478515625	-0.04668865203857422	0		-0.86937646484375	-2.28722900390625	0		1.4666204833984375	-0.4918549194335938	0		3.111027587890625	0.16216188049316407	0		4.52659912109375	0.12498530578613282	0		5.596443359375	0.10671485900878906	0		-0.16064781188964844	5.889861328125	0		
-0.04851577758789063	0.0029460558891296388	0		0.4208824462890625	-2.320407470703125	0		-1.1114708251953125	-0.043911296844482424	0		-0.7917699584960938	-2.289697509765625	0		1.4703218994140625	-0.48805899047851564	0		3.086903564453125	0.1764354705810547	0		4.5305908203125	0.14578070068359375	0		5.60121240234375	0.11449575805664063	0		-0.1590354461669922	5.88869091796875	0		
0.028982797622680665	-5.153449773788452E-4	0		0.44635467529296874	-2.324980712890625	0		-1.109063720703125	-0.052091342926025394	0		-0.8739917602539062	-2.27542919921875	0		1.470865966796875	-0.488205810546875	0		3.09720703125	0.1621201171875	0		4.5318955078125	0.13161915588378906	0		5.607619140625	0.1062480697631836	0		-0.159474853515625	5.88956103515625	0		
-0.04751361846923828	0.002658552885055542	0		0.44272821044921873	-2.330052001953125	0		-1.040547119140625	-0.04939357757568359	0		-0.8046971435546875	-2.28574658203125	0		1.4651884765625	-0.49624267578125	0		3.10175	0.16691069030761718	0		4.532353515625	0.13147882080078124	0		5.6080771484375	0.10610777282714844	0		-0.15901690673828126	5.88942041015625	0		
0.026768827438354494	-0.0037383689880371093	0		0.4431072998046875	-2.33018603515625	0		-1.0771461181640625	-0.04789635467529297	0		-0.867360107421875	-2.2878046875	0		1.465567138671875	-0.4963764953613281	0		3.089062255859375	0.16299977111816405	0		4.52786962890625	0.13942987060546874	0		5.59845703125	0.10614559173583984	0		-0.15863958740234374	5.88928662109375	0		
-0.049895225524902345	-0.0015516090393066406	0		0.44544970703125	-2.32834814453125	0		-1.0709246826171874	-0.05312626647949219	0		-0.8301082153320313	-2.291564208984375	0		1.465875	-0.49650372314453123	0		3.0934716796875	0.16880398559570312	0		4.53303955078125	0.1312196044921875	0		5.5987646484375	0.10601994323730468	0		-0.1583341827392578	5.88915869140625	0		
0.03444290542602539	0.002892119884490967	0		0.42282135009765626	-2.32107763671875	0		-1.0955023193359374	-0.04282249069213867	0		-0.8586503295898438	-2.2791923828125	0		1.4753095703125	-0.4857796630859375	0		3.126663330078125	0.16512091064453124	0		4.52639111328125	0.1372186737060547	0		5.5982861328125	0.12191551208496093	0		-0.2743275756835937	5.87602001953125	0		
0.03464342498779297	0.0027778260707855226	0		0.44998434448242186	-2.323652587890625	0		-1.0353446044921875	-0.04596115493774414	0		-0.7896300048828125	-2.2904833984375	0		1.4693916015625	-0.4927901611328125	0		3.093125	0.18058566284179686	0		4.53272705078125	0.14500186157226563	0		5.60334912109375	0.1137183609008789	0		-0.15788929748535158	5.8889228515625	0		
0.030737936019897463	-0.001260625958442688	0		0.41025543212890625	-2.31707763671875	0		-1.1132222900390625	-0.047736621856689455	0		-0.8742670288085937	-2.278141357421875	0		1.466486083984375	-0.4968453063964844	0		3.09408203125	0.16846379089355468	0		4.52466845703125	0.13203414916992187	0		5.593546875	0.11578286743164062	0		-0.15772856140136718	5.8888154296875	0		
0.030863929748535156	-0.0013612380027770996	0		0.4441556091308594	-2.330756591796875	0		-1.0391241455078124	-0.05010099029541016	0		-0.7934078979492187	-2.294623046875	0		1.4666123046875	-0.49694525146484375	0		3.099087890625	0.1612802734375	0		4.52479443359375	0.13193563842773437	0		5.59950146484375	0.10558389282226563	0		-0.15760533142089844	5.88871484375	0		
-0.04907348251342773	-0.0020893430709838868	0		0.3923694763183594	-2.3229638671875	0		-1.1130111083984375	-0.04793274307250977	0		-0.8641912841796875	-2.2865068359375	0		1.46669775390625	-0.497038330078125	0		3.0991728515625	0.16118836975097656	0		4.52286279296875	0.13087907409667968	0		5.5947236328125	0.11357801055908204	0		-0.15752455139160157	5.88862060546875	0		
0.035053321838378906	0.002388109922409058	0		0.450399658203125	-2.324041259765625	0		-1.0989423828125	-0.046260669708251954	0		-0.8600849609375	-2.2826640625	0		1.4728704833984374	-0.48922833251953124	0		3.08944970703125	0.17527206420898436	0		4.5338974609375	0.13060755920410155	0		5.599623046875	0.1054110107421875	0		-0.27668057250976563	5.87856591796875	0		
